<svg class="svg-icon" style="width: 1em;height: 1em;vertical-align: middle;fill: currentColor;overflow: hidden;" viewBox="0 0 1024 1024" version="1.1" xmlns="http://www.w3.org/2000/svg"><path d="M895.7 476.59v-170.554H341.492v170.554h-127.902v213.146H290v170.524h605.7v-170.524h127.898V476.59z" fill="#FFCE54" /><path d="M1023.598 476.59H895.7v-170.554H341.492v170.554h-127.9v213.146H290v170.524h605.7v-170.524h127.898V476.59z m-383.668-127.9h213.144v127.9H639.93v-127.9z m85.246 298.424H512.016v-127.9H725.176v127.9zM384.114 348.69h213.162v127.9H384.114v-127.9z m-127.9 298.424v-127.9h213.178v127.9H256.214z m341.062 170.522H332.654v-127.9h264.622v127.9z m255.798 0H639.93v-127.9h213.144v127.9z m127.902-170.522H767.828v-127.9h213.15v127.9z" fill="#F6BB42" /><path d="M292.062 859.978c-2.062 0 2.028 0.064 0 0z" fill="#FC6E51" /><path d="M444.098 450.392C339.804 326.05 380.71 163.74 380.71 163.74 203.662 197.09 111.828 310.75 87.908 485.552c-19.142-13.176-46.464-17.518-60.858-35.44-99.548 258.516 100.046 417.142 265.012 409.868 164.276-7.246 345.524-178.926 152.036-409.588z" fill="#FC6E51" /></svg>